<svg width="529" height="319" viewBox="0 0 529 319" fill="none" xmlns="http://www.w3.org/2000/svg">
<path d="M528.8 318.501C528.8 318.641 410.41 318.761 264.41 318.761C118.41 318.761 0 318.641 0 318.501C0 318.361 118.4 318.241 264.4 318.241C410.4 318.241 528.8 318.351 528.8 318.501Z" fill="#263238"/>
<path d="M437.66 225.161H97.33C96.0384 225.161 94.7997 224.648 93.8864 223.735C92.9731 222.822 92.46 221.583 92.46 220.291C92.46 219 92.9731 217.761 93.8864 216.848C94.7997 215.934 96.0384 215.421 97.33 215.421H437.66C438.952 215.421 440.19 215.934 441.104 216.848C442.017 217.761 442.53 219 442.53 220.291C442.53 221.583 442.017 222.822 441.104 223.735C440.19 224.648 438.952 225.161 437.66 225.161Z" fill="#455A64"/>
<path d="M141.07 225.161H131.44V318.531H141.07V225.161Z" fill="#455A64"/>
<path d="M378.77 225.161H369.14V318.531H378.77V225.161Z" fill="#455A64"/>
<path d="M319.07 51.6714C317.098 50.3094 314.774 49.5466 312.378 49.4749C309.982 49.4032 307.617 50.0257 305.567 51.2674C303.517 52.5091 301.869 54.317 300.823 56.4734C299.777 58.6298 299.376 61.0426 299.67 63.4214C299.98 65.8914 301.02 68.3714 300.39 70.7814C299.2 75.2814 292.85 77.0414 292.01 81.6214C291.68 83.4314 292.32 85.2514 292.81 87.0214C293.3 88.7914 293.6 90.7914 292.68 92.3814C292.01 93.5614 290.78 94.3014 289.82 95.2614C286.72 98.3514 286.82 103.771 289.37 107.261C291.92 110.751 296.55 112.481 300.92 112.341C305.306 112.021 309.536 110.574 313.2 108.141" fill="#263238"/>
<path d="M314.99 53.1914C315.708 51.1082 316.952 49.2454 318.6 47.7827C320.248 46.3201 322.246 45.3071 324.4 44.8414C328.67 43.8414 333.97 42.4214 337.88 44.4114C340.32 45.6614 342.66 47.4714 343.62 50.0414C344.76 53.0414 343.01 58.7614 342.13 61.9014C341.25 65.0414 340.6 68.6014 342.33 71.3614C344.06 74.1214 347.43 75.0814 349.55 77.4314C350.958 79.1167 351.654 81.2847 351.49 83.4749C351.326 85.6652 350.314 87.705 348.67 89.1614C352.45 88.9414 355.67 92.7914 355.5 96.5714C355.33 100.351 352.61 103.671 349.24 105.381C345.87 107.091 341.97 107.451 338.19 107.461C333.485 107.472 328.793 106.986 324.19 106.011C320.41 105.211 316.47 103.941 314.01 100.961C311.75 98.2214 311.12 94.4814 311.12 90.9614C311.12 78.3914 317.69 65.9614 314.83 53.7014" fill="#263238"/>
<path d="M337.55 146.421L342.4 161.601C343.322 164.697 345.08 167.478 347.482 169.637C349.883 171.797 352.834 173.252 356.01 173.841L388.4 179.841L397.21 179.561L388.4 168.681L364.06 160.381C362.892 160.128 361.817 159.56 360.949 158.738C360.082 157.917 359.456 156.873 359.14 155.721L349.4 134.631L337.13 142.161L337.55 146.421Z" fill="#B78876"/>
<path d="M289.8 131.571C290.25 133.921 297.1 151.021 297.1 151.021C297.1 151.021 323.76 142.021 323.41 140.651C323.12 139.581 318 122.461 311.86 112.981C310.705 111.151 309.138 109.615 307.283 108.499C305.429 107.382 303.338 106.715 301.18 106.551C299.98 106.471 297.38 107.721 296.67 108.121C291.06 111.291 286.29 113.421 289.8 131.571Z" fill="#455A64"/>
<path d="M327.4 98.4414C339.46 99.7914 341.4 107.981 347.04 116.051L355.17 131.051L340.17 140.221L340.69 163.221L347.81 185.221L291.56 179.931L296.75 161.091L289.26 131.511C288.69 127.511 287.14 119.981 288.19 116.021C291.46 103.631 304.35 100.021 313.19 97.7014C315.02 97.2314 323.84 97.2614 325.37 97.6314" fill="#6B8AFD"/>
<path d="M290.29 131.331L290.41 131.651C290.48 131.881 290.59 132.201 290.72 132.601C290.99 133.451 291.38 134.671 291.87 136.231C292.87 139.391 294.26 143.901 295.97 149.371L295.78 149.281L320.78 140.041L321.4 139.781L321.3 139.991C319.782 134.358 317.82 128.854 315.43 123.531C313.58 119.152 311.071 115.082 307.99 111.461C306.785 110.099 305.362 108.947 303.78 108.051C302.592 107.368 301.259 106.974 299.89 106.901C299.627 106.887 299.363 106.887 299.1 106.901L298.4 106.971L297.81 107.041L297.33 107.171L296.67 107.341L296.44 107.391C296.507 107.351 296.582 107.324 296.66 107.311L297.31 107.101L297.79 106.961C297.988 106.919 298.188 106.889 298.39 106.871L299.09 106.781C299.359 106.761 299.63 106.761 299.9 106.781C301.303 106.831 302.675 107.215 303.9 107.901C305.51 108.79 306.96 109.943 308.19 111.311C311.322 114.928 313.873 119.01 315.75 123.411C318.164 128.746 320.14 134.267 321.66 139.921V140.071L321.52 140.131L320.89 140.391C311.51 143.901 302.81 147.021 295.82 149.571L295.68 149.631V149.481C294.03 143.991 292.68 139.481 291.68 136.301C291.21 134.731 290.85 133.501 290.6 132.641C290.48 132.241 290.39 131.921 290.32 131.641C290.302 131.539 290.292 131.435 290.29 131.331Z" fill="#263238"/>
<path d="M320.4 136.591C320.4 136.681 314.65 138.681 307.49 141.051C300.33 143.421 294.49 145.271 294.49 145.171C294.49 145.071 300.24 143.081 307.41 140.711C314.58 138.341 320.34 136.491 320.4 136.591Z" fill="#263238"/>
<g opacity="0.3">
<path d="M297.19 148.961C298.275 153.858 299.682 158.679 301.4 163.391C302.476 166.388 304.007 169.201 305.94 171.731C308.798 175.027 312.611 177.352 316.85 178.381C321.065 179.4 325.435 179.614 329.73 179.011L308.32 166.911L302.62 147.121L297.19 148.961Z" fill="black"/>
</g>
<path d="M299.65 147.841L304.93 165.121C305.842 168.233 307.596 171.032 309.997 173.211C312.399 175.39 315.355 176.864 318.54 177.471L350.93 183.621L359.74 183.341L350.93 172.291L326.58 163.891C325.407 163.629 324.328 163.048 323.462 162.214C322.596 161.38 321.976 160.324 321.67 159.161L317.16 141.771L299.65 147.841Z" fill="#B78876"/>
<path d="M340.74 162.621C340.653 162.082 340.603 161.537 340.59 160.991C340.54 159.841 340.46 158.341 340.37 156.521C340.21 152.751 340.03 147.521 339.85 141.791C339.67 136.061 339.55 130.791 339.48 127.051C339.48 125.231 339.48 123.731 339.43 122.581C339.406 122.034 339.423 121.486 339.48 120.941C339.579 121.479 339.629 122.025 339.63 122.571C339.69 123.721 339.76 125.221 339.85 127.041C340.01 130.811 340.2 136.041 340.37 141.771C340.54 147.501 340.68 152.771 340.74 156.511C340.74 158.331 340.74 159.841 340.8 160.981C340.831 161.529 340.811 162.078 340.74 162.621Z" fill="#263238"/>
<g opacity="0.3">
<path d="M337.17 147.841C337.76 148.221 336.24 151.611 333.09 154.841C329.94 158.071 326.6 159.671 326.21 159.081C325.82 158.491 328.29 156.081 331.21 153.021C334.13 149.961 336.55 147.451 337.17 147.841Z" fill="black"/>
</g>
<path d="M353 127.061C350.989 128.535 348.881 129.871 346.69 131.061C344.583 132.401 342.384 133.591 340.11 134.621C344.224 131.8 348.531 129.27 353 127.051V127.061Z" fill="#263238"/>
<path d="M317.14 128.081C317.14 128.131 316.74 128.021 316.05 128.081C315.066 128.173 314.122 128.517 313.31 129.081C312.097 129.919 310.998 130.911 310.04 132.031C308.848 133.486 307.261 134.566 305.47 135.141C303.47 135.591 301.57 134.891 299.98 134.441C298.614 133.919 297.142 133.737 295.69 133.911C294.726 134.08 293.856 134.591 293.24 135.351C293.041 135.653 292.867 135.971 292.72 136.301C292.72 136.301 292.72 136.191 292.72 136.001C292.793 135.729 292.908 135.469 293.06 135.231C293.657 134.368 294.563 133.767 295.59 133.551C297.105 133.31 298.656 133.455 300.1 133.971C301.7 134.411 303.51 135.051 305.33 134.641C307.025 134.08 308.532 133.059 309.68 131.691C310.682 130.565 311.833 129.579 313.1 128.761C313.977 128.205 314.992 127.907 316.03 127.901C316.307 127.9 316.583 127.937 316.85 128.011C317.05 128.031 317.15 128.061 317.14 128.081Z" fill="#FAFAFA"/>
<path d="M340.4 124.401C340.074 124.309 339.738 124.252 339.4 124.231C338.486 124.299 337.616 124.648 336.91 125.231C336.43 125.561 335.91 125.981 335.33 126.371C334.683 126.8 333.948 127.077 333.18 127.181C331.43 127.328 329.673 126.982 328.11 126.181C326.617 125.389 325.077 124.688 323.5 124.081C322.232 123.611 320.844 123.569 319.55 123.961C318.671 124.216 317.899 124.75 317.35 125.481C316.99 126.001 316.9 126.371 316.85 126.361C316.8 126.351 316.85 126.261 316.85 126.091C316.913 125.838 317.014 125.595 317.15 125.371C317.67 124.541 318.467 123.921 319.4 123.621C320.766 123.144 322.254 123.144 323.62 123.621C325.227 124.207 326.791 124.905 328.3 125.711C329.773 126.472 331.425 126.817 333.08 126.711C334.41 126.433 335.647 125.817 336.67 124.921C337.446 124.334 338.397 124.024 339.37 124.041C339.635 124.055 339.895 124.127 340.13 124.251C340.29 124.321 340.4 124.381 340.4 124.401Z" fill="#FAFAFA"/>
<path d="M339.1 129.401C339.734 129.24 340.347 129.008 340.93 128.711C342.236 127.802 343.358 126.656 344.24 125.331C345.176 123.946 346.492 122.859 348.03 122.201C348.347 122.069 348.687 122.001 349.03 122.001C349.373 122.001 349.713 122.069 350.03 122.201C349.379 122.222 348.736 122.34 348.12 122.551C346.709 123.279 345.502 124.348 344.61 125.661C343.696 127.04 342.487 128.198 341.07 129.051C340.478 129.405 339.777 129.529 339.1 129.401Z" fill="#FAFAFA"/>
<path d="M428.28 296.121L428.12 285.941L409.05 286.121L409.13 301.021L410.31 301.081C415.58 301.321 437.1 301.951 440.61 300.851C444.52 299.621 428.28 296.121 428.28 296.121Z" fill="#6B8AFD"/>
<g opacity="0.4">
<path d="M436.22 298.121C436.22 298.121 441.91 299.701 441.22 300.641C440.53 301.581 418.75 301.771 409.14 301.021V300.591H434.54C434.54 300.591 435.11 298.171 436.22 298.121Z" fill="white"/>
</g>
<path d="M408.85 300.581H409.18L410.12 300.631L413.59 300.751C416.52 300.831 420.59 300.891 425.04 300.851C429.49 300.811 433.56 300.701 436.48 300.571L439.95 300.401L440.89 300.331C440.999 300.347 441.11 300.347 441.22 300.331H440.89H439.89L436.43 300.431C433.5 300.511 429.43 300.611 424.99 300.641C420.55 300.671 416.47 300.641 413.55 300.641H410.08H408.8L408.85 300.581Z" fill="#263238"/>
<path d="M434.55 300.841C434.698 300.266 434.909 299.71 435.18 299.181C435.517 298.694 435.909 298.247 436.35 297.851C435.762 298.071 435.277 298.503 434.99 299.061C434.63 299.581 434.474 300.214 434.55 300.841Z" fill="#263238"/>
<path d="M428.9 298.081C428.9 298.081 429.22 297.781 429.49 297.341C429.76 296.901 429.95 296.511 429.89 296.481C429.83 296.451 429.57 296.781 429.3 297.221C429.03 297.661 428.85 298.041 428.9 298.081Z" fill="#263238"/>
<path d="M427.4 297.271C427.4 297.321 427.74 297.121 428.07 296.821C428.4 296.521 428.62 296.241 428.58 296.191C428.54 296.141 428.24 296.351 427.91 296.651C427.58 296.951 427.31 297.231 427.4 297.271Z" fill="#263238"/>
<path d="M426.4 295.481C426.4 295.551 426.84 295.601 427.4 295.601C427.737 295.636 428.078 295.599 428.4 295.491C428.081 295.372 427.738 295.331 427.4 295.371C427.063 295.334 426.721 295.372 426.4 295.481Z" fill="#263238"/>
<path d="M426.01 294.221C426.356 294.4 426.735 294.506 427.124 294.531C427.513 294.557 427.903 294.503 428.27 294.371C427.516 294.328 426.763 294.278 426.01 294.221Z" fill="#263238"/>
<path d="M429.53 296.411C429.937 296.48 430.353 296.48 430.76 296.411C431.201 296.352 431.637 296.252 432.06 296.111C432.317 296.036 432.566 295.932 432.8 295.801C432.946 295.714 433.053 295.575 433.1 295.411C433.118 295.32 433.11 295.225 433.076 295.139C433.042 295.052 432.985 294.977 432.91 294.921C432.44 294.698 431.906 294.645 431.401 294.771C430.896 294.897 430.45 295.194 430.14 295.611C429.952 295.853 429.819 296.133 429.75 296.431C429.723 296.54 429.723 296.653 429.75 296.761C429.873 296.398 430.059 296.06 430.3 295.761C430.561 295.441 430.908 295.201 431.3 295.071C431.537 294.989 431.788 294.955 432.039 294.97C432.289 294.986 432.534 295.051 432.76 295.161C432.96 295.301 432.88 295.531 432.67 295.661C432.45 295.783 432.219 295.884 431.98 295.961C431.569 296.105 431.148 296.219 430.72 296.301C430 296.361 429.53 296.371 429.53 296.411Z" fill="#263238"/>
<path d="M429.85 296.471C430 296.211 430.047 295.904 429.98 295.611C429.942 295.291 429.825 294.985 429.64 294.721C429.537 294.544 429.392 294.394 429.217 294.286C429.043 294.178 428.845 294.115 428.64 294.101C428.516 294.13 428.408 294.205 428.337 294.311C428.266 294.417 428.239 294.546 428.26 294.671C428.294 294.868 428.369 295.055 428.48 295.221C428.643 295.491 428.837 295.739 429.06 295.961C429.253 296.18 429.497 296.348 429.77 296.451C429.77 296.451 429.52 296.231 429.18 295.841C428.981 295.617 428.807 295.373 428.66 295.111C428.49 294.851 428.37 294.391 428.66 294.331C428.95 294.271 429.28 294.601 429.47 294.851C429.643 295.086 429.762 295.356 429.82 295.641C429.856 295.916 429.866 296.194 429.85 296.471Z" fill="#263238"/>
<path d="M409.2 295.361C409.2 295.361 409.74 295.301 410.61 295.361C411.733 295.477 412.8 295.907 413.69 296.601C414.592 297.296 415.284 298.227 415.69 299.291C415.98 300.111 416.02 300.661 416.06 300.651C416.079 300.525 416.079 300.397 416.06 300.271C416.02 299.932 415.946 299.597 415.84 299.271C415.489 298.153 414.806 297.167 413.883 296.444C412.96 295.721 411.84 295.295 410.67 295.221C410.321 295.187 409.969 295.187 409.62 295.221C409.33 295.311 409.2 295.341 409.2 295.361Z" fill="#263238"/>
<path d="M411.11 287.411C410.981 288.71 410.934 290.016 410.97 291.321C410.934 292.629 410.967 293.937 411.07 295.241C411.199 293.939 411.246 292.63 411.21 291.321C411.246 290.017 411.213 288.712 411.11 287.411Z" fill="#263238"/>
<path d="M418.4 298.921C419.315 299.123 420.253 299.207 421.19 299.171C422.126 299.214 423.064 299.133 423.98 298.931C423.98 298.861 422.73 298.931 421.19 298.931C419.65 298.931 418.4 298.841 418.4 298.921Z" fill="#263238"/>
<path d="M414.69 298.951C414.69 299.001 414.79 299.211 414.92 299.501C415.05 299.791 415.12 300.031 415.19 300.031C415.26 300.031 415.28 299.731 415.13 299.401C414.98 299.071 414.73 298.901 414.69 298.951Z" fill="#263238"/>
<path d="M413.26 297.211C413.26 297.211 413.34 297.451 413.54 297.651C413.74 297.851 413.94 297.971 413.98 297.931C414.02 297.891 413.9 297.681 413.7 297.481C413.5 297.281 413.31 297.161 413.26 297.211Z" fill="#263238"/>
<path d="M411.24 296.421C411.24 296.491 411.51 296.481 411.79 296.581C412.07 296.681 412.27 296.821 412.32 296.781C412.37 296.741 412.21 296.471 411.86 296.361C411.51 296.251 411.22 296.371 411.24 296.421Z" fill="#263238"/>
<path d="M409.8 296.061C409.8 296.121 409.89 296.221 410.05 296.281C410.21 296.341 410.35 296.341 410.38 296.281C410.41 296.221 410.29 296.121 410.13 296.061C409.97 296.001 409.82 296.001 409.8 296.061Z" fill="#263238"/>
<g opacity="0.3">
<path d="M409.22 294.851L428.27 294.371L428.22 292.071L409.08 292.371L409.22 294.851Z" fill="black"/>
</g>
<path d="M350.93 186.081L406.65 187.081C410.968 187.164 415.11 188.804 418.313 191.701C421.516 194.597 423.564 198.554 424.08 202.841L435.13 292.641H404.87L395.62 215.081H351.68L350.93 186.081Z" fill="#263238"/>
<path d="M434.75 286.921C434.75 287.061 428.12 287.221 419.95 287.271C411.78 287.321 405.14 287.271 405.14 287.111C405.14 286.951 411.76 286.801 419.94 286.751C428.12 286.701 434.75 286.781 434.75 286.921Z" fill="#455A64"/>
<path d="M298.69 215.421C276.45 208.061 291.63 178.281 291.63 178.281L388.84 187.421C390.695 187.408 392.535 187.762 394.253 188.464C395.971 189.165 397.534 190.199 398.85 191.507C400.166 192.815 401.211 194.371 401.923 196.085C402.635 197.798 403.001 199.636 403 201.491C403.001 203.338 402.638 205.167 401.932 206.873C401.226 208.58 400.191 210.13 398.885 211.436C397.579 212.742 396.028 213.778 394.322 214.484C392.616 215.19 390.787 215.553 388.94 215.551L298.69 215.421Z" fill="#263238"/>
<path d="M328.34 183.861L328.62 181.761L353.5 180.781L365.71 149.991L412.23 153.151L396.53 187.331L328.34 183.861Z" fill="#455A64"/>
<path d="M384.02 169.961C383.763 170.37 383.39 170.694 382.949 170.891C382.508 171.088 382.019 171.149 381.543 171.068C381.067 170.986 380.626 170.765 380.275 170.433C379.925 170.101 379.681 169.672 379.574 169.201C379.468 168.73 379.503 168.238 379.677 167.787C379.85 167.336 380.153 166.947 380.548 166.669C380.942 166.39 381.411 166.235 381.894 166.223C382.376 166.211 382.852 166.343 383.26 166.601C383.805 166.947 384.192 167.495 384.334 168.124C384.477 168.754 384.363 169.415 384.02 169.961Z" fill="white"/>
<path d="M318.92 183.251C319.016 183.234 319.114 183.234 319.21 183.251H320.06L323.31 183.381L335.31 183.941L374.75 185.941C376.67 186.031 378.58 186.191 380.45 186.211C382.32 186.231 384.18 186.311 386 186.421C387.82 186.531 389.61 186.651 391.35 186.831C393.079 186.943 394.787 187.279 396.43 187.831C398 188.387 399.44 189.258 400.66 190.391C401.793 191.487 402.67 192.818 403.23 194.291C403.723 195.652 404.058 197.065 404.23 198.501C404.42 199.826 404.513 201.163 404.51 202.501C404.546 204.808 404.089 207.096 403.17 209.211C402.45 210.799 401.367 212.197 400.01 213.291C399.151 213.974 398.175 214.496 397.13 214.831C396.766 214.948 396.391 215.022 396.01 215.051C396.01 215.051 396.4 214.971 397.1 214.731C398.114 214.366 399.055 213.824 399.88 213.131C401.171 212.043 402.197 210.675 402.88 209.131C403.754 207.047 404.177 204.801 404.12 202.541C404.112 201.229 404.009 199.919 403.81 198.621C403.636 197.217 403.3 195.838 402.81 194.511C402.275 193.1 401.431 191.825 400.34 190.781C399.158 189.702 397.77 188.872 396.26 188.341C394.644 187.79 392.963 187.454 391.26 187.341C389.53 187.171 387.75 187.051 385.93 186.951C384.11 186.851 382.27 186.781 380.4 186.751C378.53 186.721 376.62 186.571 374.69 186.481L335.25 184.281L323.25 183.551L320 183.331L319.16 183.261L318.92 183.251Z" fill="#455A64"/>
<path d="M307.03 55.1214L307.09 58.1214L307.69 102.851C307.76 108.051 318.43 113.431 323.99 113.311C329.6 113.191 327.6 107.221 327.99 102.311C328.28 98.5516 328.326 94.7771 328.13 91.0113C328.13 91.0113 335.22 89.8313 336.69 80.5713C337.42 75.9713 337.19 68.4214 336.8 62.2514C336.718 60.9351 336.371 59.6491 335.779 58.4707C335.187 57.2923 334.362 56.246 333.355 55.3948C332.348 54.5436 331.178 53.9051 329.918 53.5178C328.657 53.1306 327.331 53.0025 326.02 53.1414L307.03 55.1214Z" fill="#B78876"/>
<path d="M334.4 68.2114C334.403 68.5219 334.284 68.8212 334.069 69.0454C333.854 69.2696 333.56 69.401 333.25 69.4114C333.099 69.4237 332.947 69.4055 332.803 69.3579C332.66 69.3104 332.527 69.2345 332.413 69.1347C332.3 69.0349 332.207 68.9132 332.141 68.777C332.075 68.6407 332.037 68.4926 332.03 68.3414C332.027 68.0325 332.144 67.7347 332.357 67.5107C332.57 67.2868 332.861 67.1544 333.17 67.1414C333.321 67.1292 333.474 67.1473 333.618 67.1947C333.762 67.2421 333.895 67.3179 334.01 67.4176C334.125 67.5173 334.218 67.6388 334.285 67.7752C334.352 67.9115 334.391 68.0598 334.4 68.2114Z" fill="#263238"/>
<path d="M335.21 66.1514C335.06 66.3014 334.16 65.6414 332.88 65.6414C331.6 65.6414 330.67 66.2814 330.53 66.1314C330.39 65.9814 330.61 65.7814 331.02 65.4814C331.572 65.0984 332.228 64.8958 332.9 64.9014C333.565 64.8963 334.214 65.1068 334.75 65.5014C335.15 65.8414 335.28 66.0814 335.21 66.1514Z" fill="#263238"/>
<path d="M321.95 68.2114C321.955 68.521 321.839 68.8203 321.626 69.0448C321.412 69.2693 321.119 69.401 320.81 69.4114C320.658 69.4251 320.505 69.4079 320.361 69.361C320.216 69.3141 320.082 69.2384 319.967 69.1385C319.852 69.0386 319.759 68.9164 319.692 68.7795C319.626 68.6425 319.587 68.4935 319.58 68.3414C319.577 68.0325 319.694 67.7347 319.907 67.5107C320.12 67.2868 320.411 67.1544 320.72 67.1414C320.871 67.1292 321.024 67.1473 321.168 67.1947C321.312 67.2421 321.445 67.3179 321.56 67.4176C321.675 67.5173 321.768 67.6388 321.835 67.7752C321.902 67.9115 321.941 68.0598 321.95 68.2114Z" fill="#263238"/>
<path d="M322.65 66.3914C322.5 66.5414 321.6 65.8814 320.32 65.8814C319.04 65.8814 318.11 66.5214 317.97 66.3714C317.83 66.2214 318.05 66.0214 318.46 65.7214C319.015 65.3371 319.675 65.1344 320.35 65.1414C321.015 65.1392 321.663 65.3494 322.2 65.7414C322.59 66.0414 322.72 66.3214 322.65 66.3914Z" fill="#263238"/>
<path d="M327.29 75.8414C327.961 75.6309 328.657 75.5066 329.36 75.4714C329.69 75.4714 330 75.3714 330.05 75.1514C330.086 74.8031 330.009 74.4524 329.83 74.1514C329.53 73.3614 329.2 72.5314 328.83 71.6614C327.936 69.5588 327.211 67.3887 326.66 65.1714C327.726 67.1984 328.626 69.3087 329.35 71.4814L330.27 73.9714C330.475 74.3649 330.535 74.818 330.44 75.2514C330.392 75.3669 330.318 75.4701 330.225 75.5532C330.131 75.6363 330.02 75.6972 329.9 75.7314C329.721 75.7835 329.536 75.8104 329.35 75.8114C328.667 75.9071 327.975 75.9172 327.29 75.8414Z" fill="#263238"/>
<path d="M328.17 90.9814C323.81 91.0468 319.517 89.901 315.77 87.6714C315.77 87.6714 318.77 94.0314 328.04 93.1614L328.17 90.9814Z" fill="#AA6550"/>
<path d="M326.75 78.9414C326.506 78.6345 326.188 78.3952 325.826 78.2463C325.463 78.0975 325.069 78.0442 324.68 78.0914C324.398 78.1141 324.125 78.1941 323.875 78.3265C323.626 78.4589 323.406 78.641 323.23 78.8614C323.057 79.0749 322.955 79.3366 322.937 79.6105C322.919 79.8845 322.987 80.1572 323.13 80.3914C323.335 80.6187 323.604 80.7799 323.901 80.8547C324.198 80.9294 324.511 80.9144 324.8 80.8114C325.408 80.5917 325.966 80.2516 326.44 79.8114C326.58 79.7052 326.701 79.5769 326.8 79.4314C326.849 79.361 326.875 79.2772 326.875 79.1914C326.875 79.1056 326.849 79.0218 326.8 78.9514" fill="#AA6550"/>
<path d="M323.53 76.7413C323.73 76.7413 323.74 78.1213 324.92 79.1013C326.1 80.0813 327.59 79.9413 327.6 80.1013C327.61 80.2613 327.27 80.3713 326.6 80.3913C325.788 80.3993 325 80.1234 324.37 79.6113C323.761 79.1121 323.374 78.3939 323.29 77.6113C323.28 77.0813 323.4 76.7413 323.53 76.7413Z" fill="#263238"/>
<path d="M314.56 50.8414C314.56 50.7314 314.71 50.6714 314.79 50.7014C314.87 50.7314 314.89 50.8514 314.85 50.9614C314.81 51.0714 314.7 51.1314 314.62 51.1014C314.578 51.0747 314.548 51.0324 314.537 50.9837C314.525 50.9351 314.534 50.8839 314.56 50.8414Z" fill="#263238"/>
<path d="M306.55 98.9213C307.908 98.4042 309.139 97.6007 310.159 96.5653C311.178 95.53 311.963 94.2872 312.46 92.9213C313.43 90.1713 313.5 87.1839 312.66 84.3913C312.29 83.1013 311.77 81.6913 312.34 80.4813C312.863 79.6633 313.543 78.9565 314.34 78.4013C315.93 76.866 316.871 74.7796 316.97 72.5713C317.049 70.3742 316.646 68.1863 315.79 66.1614C315.35 65.0414 314.79 63.8213 315.22 62.6813C315.59 61.8966 316.142 61.2111 316.83 60.6813C318.149 59.45 319.239 57.994 320.05 56.3813C320.391 55.8408 320.608 55.2309 320.684 54.596C320.76 53.9612 320.694 53.3173 320.49 52.7113C319.82 51.3213 318.07 50.8813 316.49 50.7713C312.83 50.4913 308.78 51.3014 306.49 54.1414C304.4 56.6814 304.16 60.2313 304.01 63.5213C303.55 73.8913 303.09 84.3613 304.88 94.5913" fill="#263238"/>
<path d="M340.4 54.0914C339.891 54.4094 339.363 54.6966 338.82 54.9514C338.344 55.3032 337.896 55.691 337.48 56.1114C337.25 56.3414 336.99 56.6014 336.76 56.8614C336.69 56.9314 336.66 57.0014 336.59 57.0714L336.33 57.3314L335.68 57.9414C335.056 58.5144 334.388 59.036 333.68 59.5014C332.634 60.208 331.468 60.7196 330.24 61.0114C327.876 61.5232 325.409 61.2201 323.24 60.1514C321.735 59.4277 320.415 58.371 319.38 57.0614C317.81 54.9614 317.56 53.2614 318.29 52.3314C319.02 51.4014 320.84 51.5414 322.88 52.0414C323.867 52.2998 324.869 52.5002 325.88 52.6414C326.681 52.7587 327.496 52.7384 328.29 52.5814C328.676 52.487 329.051 52.3529 329.41 52.1814C329.93 51.9514 330.58 51.6014 331.32 51.2514C331.7 51.0714 332.09 50.8914 332.52 50.7314L333.16 50.5014C333.39 50.4214 333.65 50.3314 333.89 50.2714C334.798 50.0437 335.737 49.9693 336.67 50.0514C337.409 50.0845 338.131 50.281 338.785 50.6269C339.438 50.9727 340.007 51.4592 340.45 52.0514C341.02 52.9914 340.79 53.7214 340.4 54.0914Z" fill="#263238"/>
<path d="M322.98 61.3814C322.85 61.7314 321.58 61.5614 320.08 61.7414C318.58 61.9214 317.37 62.3314 317.17 62.0214C317.08 61.8714 317.29 61.5514 317.78 61.2114C318.428 60.7875 319.169 60.5268 319.94 60.4514C320.707 60.3649 321.484 60.4573 322.21 60.7214C322.76 60.9414 323.03 61.2214 322.98 61.3814Z" fill="#263238"/>
<path d="M334.74 62.4513C334.51 62.7413 333.63 62.4513 332.57 62.4513C331.51 62.4513 330.62 62.6413 330.41 62.3413C330.32 62.1913 330.46 61.9013 330.86 61.6213C331.387 61.2956 331.998 61.1323 332.617 61.1518C333.236 61.1714 333.835 61.373 334.34 61.7313C334.71 62.0113 334.84 62.3113 334.74 62.4513Z" fill="#263238"/>
<path d="M61.3298 197.591L71.2098 195.111L75.9598 213.581L61.5498 217.361L61.1798 216.231C59.5898 211.231 53.4298 190.571 53.5798 186.901C53.7598 182.841 61.3298 197.591 61.3298 197.591Z" fill="#6B8AFD"/>
<g opacity="0.4">
<path d="M57.3999 190.431C57.3999 190.431 54.3999 185.341 53.6699 186.261C52.9399 187.181 58.3799 208.261 61.5899 217.361L61.9999 217.221L55.3999 192.681C55.3999 192.681 57.5899 191.521 57.3999 190.431Z" fill="white"/>
</g>
<path d="M62.0398 217.511C61.9914 217.413 61.9545 217.309 61.9298 217.201C61.8398 216.931 61.7398 216.631 61.6398 216.301C61.3598 215.401 61.0198 214.301 60.6398 212.981C59.8098 210.171 58.7098 206.281 57.5898 201.981C56.4698 197.681 55.5898 193.711 54.9098 190.851L54.1798 187.461C54.1198 187.111 54.0598 186.811 53.9998 186.531C53.9398 186.251 53.9498 186.211 53.9498 186.211C53.996 186.31 54.0296 186.414 54.0498 186.521C54.1098 186.801 54.1898 187.101 54.2698 187.441C54.4898 188.361 54.7498 189.441 55.0698 190.811C55.7398 193.661 56.6998 197.601 57.8098 201.921C58.9198 206.241 60.0098 210.151 60.8098 212.971C61.1798 214.281 61.4998 215.401 61.7498 216.301C61.8398 216.641 61.9298 216.941 61.9998 217.221C62.0221 217.317 62.0355 217.414 62.0398 217.511Z" fill="#263238"/>
<path d="M55.1099 192.761C55.6285 192.482 56.1148 192.147 56.5599 191.761C56.9556 191.313 57.2918 190.816 57.5599 190.281C57.4599 190.899 57.1735 191.471 56.7392 191.922C56.305 192.372 55.7434 192.679 55.1299 192.801L55.1099 192.761Z" fill="#263238"/>
<path d="M59.2898 197.491C59.2898 197.491 59.4898 197.111 59.8398 196.731C60.1898 196.351 60.5198 196.081 60.5698 196.121C60.6198 196.161 60.3698 196.511 60.0098 196.891C59.6498 197.271 59.3298 197.541 59.2898 197.491Z" fill="#263238"/>
<path d="M60.4597 198.841C60.4097 198.841 60.5197 198.461 60.7297 198.071C60.9397 197.681 61.1397 197.391 61.1997 197.421C61.2597 197.451 61.1397 197.791 60.9297 198.181C60.7197 198.571 60.5197 198.841 60.4597 198.841Z" fill="#263238"/>
<path d="M62.4499 199.281C62.132 198.69 61.9541 198.033 61.9299 197.361C62.1231 197.639 62.2497 197.957 62.2999 198.291C62.4202 198.607 62.4713 198.944 62.4499 199.281Z" fill="#263238"/>
<path d="M63.7599 199.291C63.4687 199.024 63.2634 198.676 63.1699 198.291C63.0087 197.934 62.9598 197.537 63.0299 197.151C63.1862 197.495 63.3068 197.853 63.3899 198.221C63.5516 198.563 63.6757 198.922 63.7599 199.291Z" fill="#263238"/>
<path d="M60.7299 196.451C60.5688 196.073 60.4709 195.671 60.4399 195.261C60.3973 194.819 60.3973 194.374 60.4399 193.931C60.4447 193.661 60.4817 193.393 60.5499 193.131C60.5925 192.969 60.6964 192.829 60.8399 192.741C60.9234 192.701 61.0165 192.685 61.1086 192.696C61.2006 192.707 61.2878 192.743 61.3599 192.801C61.6992 193.195 61.8908 193.695 61.9018 194.215C61.9127 194.736 61.7423 195.243 61.4199 195.651C61.2347 195.895 60.9995 196.096 60.7299 196.241C60.6357 196.302 60.5303 196.343 60.4199 196.361C60.751 196.143 61.0448 195.873 61.2899 195.561C61.5334 195.211 61.6722 194.798 61.6899 194.371C61.7178 193.866 61.5534 193.37 61.2299 192.981C61.0399 192.831 60.8299 192.981 60.7599 193.201C60.703 193.444 60.6662 193.692 60.6499 193.941C60.6147 194.377 60.6147 194.815 60.6499 195.251C60.6599 195.991 60.7699 196.441 60.7299 196.451Z" fill="#263238"/>
<path d="M60.5999 196.161C60.8172 195.958 61.1026 195.844 61.3999 195.841C61.7364 195.792 62.0797 195.827 62.3999 195.941C62.6011 195.997 62.7853 196.102 62.9355 196.247C63.0857 196.392 63.1972 196.572 63.2599 196.771C63.2628 196.899 63.2168 197.023 63.1313 197.118C63.0457 197.213 62.9272 197.271 62.7999 197.281C62.6045 197.298 62.4077 197.278 62.2199 197.221C61.9179 197.132 61.6288 197.005 61.3599 196.841C61.1015 196.71 60.876 196.522 60.6999 196.291C60.6999 196.291 60.9798 196.471 61.4398 196.701C61.7082 196.834 61.9897 196.938 62.2799 197.011C62.5699 197.111 63.0499 197.101 63.0199 196.791C62.9899 196.481 62.5999 196.261 62.3199 196.141C62.0458 196.036 61.7531 195.988 61.4599 196.001C61.1691 196.03 60.8814 196.083 60.5999 196.161Z" fill="#263238"/>
<path d="M66.9998 215.841C66.9998 215.841 66.9098 215.291 66.5998 214.491C66.1981 213.433 65.5051 212.51 64.6008 211.828C63.6966 211.147 62.6181 210.735 61.4898 210.641C60.6298 210.571 60.0898 210.641 60.0898 210.641C60.2071 210.59 60.3323 210.56 60.4598 210.551C60.8062 210.489 61.1587 210.469 61.5098 210.491C62.68 210.544 63.8068 210.949 64.7422 211.654C65.6775 212.359 66.3774 213.331 66.7498 214.441C66.8611 214.766 66.9415 215.101 66.9898 215.441C67.0091 215.574 67.0125 215.708 66.9998 215.841Z" fill="#263238"/>
<path d="M74.1899 211.931C72.963 212.384 71.7109 212.764 70.4399 213.071C69.1879 213.458 67.9118 213.762 66.6199 213.981C67.8576 213.531 69.1196 213.15 70.3999 212.841C71.6449 212.466 72.9102 212.162 74.1899 211.931Z" fill="#263238"/>
<path d="M61.1697 207.841C60.3717 206.149 59.884 204.326 59.7297 202.461C59.7997 202.461 60.0297 203.671 60.4297 205.161C60.8297 206.651 61.2397 207.841 61.1697 207.841Z" fill="#263238"/>
<path d="M62.1097 211.451C62.1097 211.511 61.8297 211.451 61.5197 211.371C61.2097 211.291 60.9497 211.311 60.9397 211.251C60.9297 211.191 61.2097 211.081 61.5597 211.141C61.9097 211.201 62.1497 211.401 62.1097 211.451Z" fill="#263238"/>
<path d="M64.16 212.381C64.16 212.381 63.91 212.381 63.66 212.221C63.41 212.061 63.25 211.921 63.28 211.871C63.31 211.821 63.54 211.871 63.78 212.021C64.02 212.171 64.19 212.321 64.16 212.381Z" fill="#263238"/>
<path d="M65.3999 214.131C65.3299 214.131 65.2699 213.891 65.1099 213.641C64.9499 213.391 64.7499 213.231 64.7799 213.181C64.8099 213.131 65.0999 213.181 65.2999 213.511C65.4999 213.841 65.4999 214.131 65.3999 214.131Z" fill="#263238"/>
<path d="M66.1699 215.421C66.1099 215.421 65.9899 215.421 65.8899 215.241C65.7899 215.061 65.7599 214.961 65.8099 214.921C65.8599 214.881 65.9799 214.971 66.0799 215.111C66.1799 215.251 66.2199 215.391 66.1699 215.421Z" fill="#263238"/>
<g opacity="0.3">
<path d="M67.4898 215.671L63.0298 197.151L65.2598 196.601L69.9198 215.161L67.4898 215.671Z" fill="black"/>
</g>
<path d="M69.7798 216.701L144.05 209.841L255.36 212.331L231.95 186.841L152.03 183.011L63.8298 191.341L69.7798 216.701Z" fill="#263238"/>
<path d="M81.7999 202.251C81.0486 202.61 80.2318 202.811 79.3999 202.841C78.5681 203.007 77.7117 203.007 76.8799 202.841C78.4884 202.303 80.1904 202.103 81.8799 202.251H81.7999Z" fill="#455A64"/>
<path d="M91.7398 201.211C90.9623 201.545 90.1257 201.718 89.2798 201.721C88.4518 201.892 87.5977 201.892 86.7698 201.721C88.3829 201.206 90.0865 201.035 91.7698 201.221L91.7398 201.211Z" fill="#455A64"/>
<path d="M101.7 200.321C100.919 200.651 100.077 200.811 99.2297 200.791C98.4015 200.959 97.548 200.959 96.7197 200.791C97.5005 200.46 98.3419 200.297 99.1897 200.311C100.019 200.149 100.872 200.153 101.7 200.321Z" fill="#455A64"/>
<path d="M111.67 199.591C110.045 200.05 108.343 200.169 106.67 199.941C107.453 199.624 108.295 199.474 109.14 199.501C109.98 199.355 110.842 199.386 111.67 199.591Z" fill="#455A64"/>
<path d="M121.65 199.001C120.86 199.305 120.015 199.441 119.17 199.401C118.334 199.532 117.48 199.491 116.66 199.281C117.45 198.978 118.294 198.842 119.14 198.881C119.976 198.75 120.83 198.791 121.65 199.001Z" fill="#455A64"/>
<path d="M131.64 198.571C130.005 198.986 128.302 199.054 126.64 198.771C127.431 198.476 128.277 198.353 129.12 198.411C129.962 198.285 130.821 198.34 131.64 198.571Z" fill="#455A64"/>
<path d="M141.64 198.281C140.839 198.55 139.993 198.658 139.15 198.601C138.308 198.708 137.454 198.639 136.64 198.401C137.44 198.127 138.287 198.018 139.13 198.081C139.971 197.97 140.827 198.038 141.64 198.281Z" fill="#455A64"/>
<path d="M151.64 198.131C150.834 198.392 149.984 198.491 149.14 198.421C148.299 198.515 147.448 198.434 146.64 198.181C148.289 197.841 149.991 197.841 151.64 198.181V198.131Z" fill="#455A64"/>
<path d="M161.64 198.131C160.832 198.384 159.982 198.469 159.14 198.381C158.297 198.469 157.445 198.377 156.64 198.111C158.289 197.765 159.991 197.765 161.64 198.111V198.131Z" fill="#455A64"/>
<path d="M171.64 198.281C170.826 198.519 169.972 198.59 169.13 198.491C168.288 198.562 167.441 198.46 166.64 198.191C167.449 197.946 168.3 197.871 169.14 197.971C169.986 197.903 170.836 198.008 171.64 198.281Z" fill="#455A64"/>
<path d="M181.63 198.571C180.813 198.797 179.96 198.858 179.12 198.751C178.276 198.801 177.43 198.686 176.63 198.411C177.444 198.175 178.3 198.113 179.14 198.231C179.984 198.173 180.832 198.289 181.63 198.571Z" fill="#455A64"/>
<path d="M191.62 199.021C190.8 199.231 189.947 199.276 189.11 199.151C188.266 199.203 187.42 199.073 186.63 198.771C187.449 198.56 188.302 198.512 189.14 198.631C189.985 198.585 190.83 198.718 191.62 199.021Z" fill="#455A64"/>
<path d="M201.6 199.611C199.929 199.854 198.226 199.745 196.6 199.291C197.425 199.095 198.281 199.061 199.12 199.191C199.966 199.163 200.81 199.306 201.6 199.611Z" fill="#455A64"/>
<path d="M211.58 200.371C209.904 200.588 208.2 200.452 206.58 199.971C207.404 199.783 208.258 199.763 209.09 199.911C209.943 199.89 210.791 200.046 211.58 200.371Z" fill="#455A64"/>
<path d="M216.86 200.841C216.86 200.991 216.77 201.101 216.68 201.091C216.59 201.081 216.54 200.961 216.56 200.811C216.58 200.661 216.65 200.561 216.73 200.571C216.81 200.581 216.87 200.691 216.86 200.841Z" fill="#455A64"/>
<path d="M75.73 215.951C75.5406 215.667 75.3925 215.357 75.2899 215.031C75.0399 214.431 74.6999 213.541 74.2899 212.431C73.4999 210.231 72.4999 207.141 71.5699 203.671C70.6399 200.201 69.9899 197.031 69.5699 194.721C69.3699 193.561 69.22 192.631 69.14 191.971C69.0698 191.643 69.0463 191.306 69.0699 190.971C69.4253 192.188 69.7125 193.423 69.9299 194.671C70.4299 196.961 71.1499 200.111 72.0699 203.561C72.9899 207.011 73.9299 210.101 74.6299 212.341C75.0615 213.524 75.4287 214.729 75.73 215.951Z" fill="#455A64"/>
<path d="M122.06 209.661L123.61 199.591L142.48 202.381L140.4 217.131L139.22 217.031C133.97 216.551 112.56 214.221 109.22 212.651C105.49 210.891 122.06 209.661 122.06 209.661Z" fill="#6B8AFD"/>
<g opacity="0.4">
<path d="M113.92 210.541C113.92 210.541 108.06 211.331 108.63 212.361C109.2 213.391 130.73 216.561 140.36 217.131V216.701L115.2 213.221C115.2 213.221 115.01 210.751 113.92 210.541Z" fill="white"/>
</g>
<path d="M140.69 216.741H140.36L139.42 216.661L135.97 216.301C133.06 215.981 129.04 215.481 124.62 214.841C120.2 214.201 116.2 213.511 113.32 212.981L109.91 212.341L108.99 212.141C108.88 212.128 108.773 212.102 108.67 212.061H108.99L109.93 212.211L113.4 212.841C116.28 213.331 120.28 213.981 124.7 214.631C129.12 215.281 133.13 215.801 136.04 216.161L139.48 216.591L140.41 216.721L140.69 216.741Z" fill="#263238"/>
<path d="M115.19 213.511C115.126 212.921 114.992 212.34 114.79 211.781C114.509 211.251 114.174 210.752 113.79 210.291C114.344 210.598 114.767 211.095 114.98 211.691C115.277 212.25 115.352 212.9 115.19 213.511Z" fill="#263238"/>
<path d="M121.18 211.511C121.12 211.511 120.9 211.171 120.69 210.691C120.48 210.211 120.4 209.841 120.4 209.841C120.4 209.841 120.68 210.181 120.89 210.651C121.046 210.914 121.145 211.207 121.18 211.511Z" fill="#263238"/>
<path d="M122.82 210.921C122.82 210.921 122.51 210.721 122.22 210.381C121.93 210.041 121.75 209.731 121.8 209.691C121.85 209.651 122.12 209.891 122.4 210.231C122.68 210.571 122.87 210.841 122.82 210.921Z" fill="#263238"/>
<path d="M124.05 209.281C123.722 209.366 123.378 209.366 123.05 209.281C122.702 209.28 122.36 209.197 122.05 209.041C122.05 208.971 122.5 208.981 123.05 209.041C123.397 209.045 123.739 209.127 124.05 209.281Z" fill="#263238"/>
<path d="M124.57 208.081C124.21 208.244 123.81 208.296 123.42 208.231C123.027 208.239 122.641 208.131 122.31 207.921C122.688 207.908 123.067 207.935 123.44 208.001C123.818 207.991 124.197 208.018 124.57 208.081Z" fill="#263238"/>
<path d="M120.78 209.761C120.369 209.777 119.959 209.716 119.57 209.581C119.138 209.465 118.719 209.304 118.32 209.101C118.069 208.997 117.834 208.859 117.62 208.691C117.493 208.584 117.408 208.435 117.38 208.271C117.374 208.179 117.394 208.086 117.438 208.005C117.483 207.924 117.549 207.856 117.63 207.811C118.128 207.654 118.664 207.673 119.149 207.866C119.634 208.059 120.037 208.415 120.29 208.871C120.438 209.141 120.533 209.436 120.57 209.741C120.591 209.85 120.591 209.962 120.57 210.071C120.5 209.678 120.364 209.3 120.17 208.951C119.943 208.593 119.616 208.308 119.23 208.131C119.007 208.016 118.763 207.946 118.512 207.925C118.261 207.904 118.009 207.934 117.77 208.011C117.56 208.131 117.6 208.361 117.77 208.521C117.964 208.676 118.175 208.807 118.4 208.911C118.789 209.114 119.194 209.284 119.61 209.421C120.32 209.661 120.78 209.731 120.78 209.761Z" fill="#263238"/>
<path d="M120.46 209.781C120.351 209.505 120.351 209.198 120.46 208.921C120.543 208.608 120.701 208.32 120.92 208.081C121.048 207.916 121.216 207.786 121.409 207.704C121.601 207.621 121.812 207.59 122.02 207.611C122.139 207.654 122.236 207.742 122.29 207.857C122.345 207.971 122.352 208.102 122.31 208.221C122.255 208.413 122.16 208.59 122.03 208.741C121.827 208.981 121.599 209.199 121.35 209.391C121.13 209.581 120.865 209.712 120.58 209.771C120.58 209.771 120.85 209.591 121.24 209.261C121.471 209.065 121.679 208.844 121.86 208.601C122.06 208.371 122.25 207.931 121.95 207.831C121.784 207.827 121.619 207.86 121.468 207.93C121.317 207.999 121.184 208.102 121.08 208.231C120.875 208.438 120.718 208.687 120.62 208.961C120.537 209.228 120.484 209.503 120.46 209.781Z" fill="#263238"/>
<path d="M141.06 211.521C140.596 211.444 140.129 211.391 139.66 211.361C138.532 211.327 137.417 211.608 136.44 212.171C135.468 212.745 134.672 213.576 134.14 214.571C133.73 215.341 133.63 215.881 133.58 215.871C133.579 215.739 133.599 215.607 133.64 215.481C133.726 215.137 133.847 214.802 134 214.481C134.503 213.425 135.311 212.544 136.32 211.951C137.332 211.36 138.501 211.092 139.67 211.181C140.009 211.201 140.345 211.262 140.67 211.361C140.94 211.451 141.07 211.501 141.06 211.521Z" fill="#263238"/>
<path d="M140.27 203.381C140.207 204.688 140.07 205.99 139.86 207.281C139.721 208.579 139.507 209.868 139.22 211.141C139.282 209.835 139.419 208.532 139.63 207.241C139.763 205.943 139.976 204.653 140.27 203.381Z" fill="#263238"/>
<path d="M131.4 213.781C130.465 213.858 129.524 213.814 128.6 213.651C127.669 213.562 126.755 213.35 125.88 213.021C125.88 212.951 127.11 213.211 128.63 213.421C130.15 213.631 131.4 213.711 131.4 213.781Z" fill="#263238"/>
<path d="M135.14 214.321C135.14 214.321 135 214.571 134.83 214.831C134.66 215.091 134.56 215.331 134.49 215.321C134.42 215.311 134.44 215.011 134.63 214.701C134.82 214.391 135.1 214.271 135.14 214.321Z" fill="#263238"/>
<path d="M136.78 212.841C136.78 212.891 136.67 213.071 136.45 213.241C136.23 213.411 136.01 213.501 135.97 213.451C135.93 213.401 136.08 213.221 136.31 213.051C136.54 212.881 136.75 212.741 136.78 212.841Z" fill="#263238"/>
<path d="M138.9 212.291C138.9 212.351 138.62 212.291 138.33 212.371C138.04 212.451 137.82 212.551 137.77 212.501C137.72 212.451 137.93 212.211 138.29 212.141C138.65 212.071 138.92 212.241 138.9 212.291Z" fill="#263238"/>
<path d="M140.4 212.131C140.4 212.191 140.29 212.271 140.13 212.311C139.97 212.351 139.81 212.311 139.8 212.261C139.79 212.211 139.91 212.121 140.07 212.081C140.23 212.041 140.4 212.061 140.4 212.131Z" fill="#263238"/>
<g opacity="0.3">
<path d="M141.11 211.011L122.31 207.921L122.68 205.651L141.59 208.571L141.11 211.011Z" fill="black"/>
</g>
<path d="M222.4 52.7512C219.58 57.3012 221.53 64.7512 222.4 70.0512C223.27 75.3512 224.4 80.8212 222.88 85.9512C222.06 88.7212 220.47 91.3012 220.28 94.1712C220.03 97.8812 222.12 101.271 223.71 104.621C225.3 107.971 226.41 112.141 224.36 115.241C223.59 116.421 222.36 117.521 222.51 118.931C222.71 120.661 225.09 121.371 226.65 120.581C228.21 119.791 229.09 118.131 229.86 116.581C230.306 117.513 230.556 118.526 230.594 119.558C230.631 120.591 230.457 121.62 230.08 122.581C232.821 123.61 235.796 123.854 238.668 123.285C241.54 122.716 244.197 121.357 246.34 119.361V79.0612L222.4 52.7512Z" fill="#6B8AFD"/>
<path d="M229.84 104.961L208.54 128.531L220.23 146.291C220.23 146.291 246.67 125.101 247.55 122.411C249.69 115.871 250.79 98.5312 238.64 100.161C235.23 100.668 232.112 102.369 229.84 104.961Z" fill="#455A64"/>
<path d="M237.75 104.331L259.33 93.2512C259.33 93.2512 278.9 97.0212 279.26 119.141C279.62 141.261 278.17 176.981 278.17 176.981H227.54L237.75 104.331Z" fill="#455A64"/>
<path d="M239.78 101.521C238.84 96.2913 237.78 90.7913 237.78 90.7913C237.78 90.7913 230.84 90.8613 227.89 82.3013C225.08 74.1413 223.04 54.5013 223.04 54.5013C227.492 51.7342 232.684 50.3949 237.92 50.663C243.155 50.9312 248.183 52.7939 252.33 56.0013L259.25 98.6513C260.06 103.601 256.44 108.231 251.13 109.051C245.74 109.841 240.67 106.511 239.78 101.521Z" fill="#FFBE9D"/>
<path d="M226.4 69.4213C226.449 69.7163 226.611 69.9805 226.852 70.1579C227.093 70.3352 227.393 70.4118 227.69 70.3713C227.836 70.3588 227.979 70.3171 228.109 70.2486C228.239 70.1802 228.354 70.0863 228.448 69.9725C228.541 69.8588 228.61 69.7275 228.652 69.5864C228.693 69.4454 228.706 69.2974 228.69 69.1513C228.641 68.8563 228.478 68.592 228.237 68.4147C227.997 68.2373 227.696 68.1608 227.4 68.2013C227.253 68.2137 227.111 68.2554 226.981 68.3239C226.85 68.3924 226.735 68.4863 226.642 68.6C226.549 68.7138 226.479 68.845 226.438 68.9861C226.396 69.1272 226.383 69.2751 226.4 69.4213Z" fill="#263238"/>
<path d="M226.13 68.2713C226.29 68.3913 227.04 67.6113 228.25 67.4013C229.46 67.1913 230.47 67.6413 230.57 67.4613C230.67 67.2813 230.43 67.1513 230 66.9313C229.408 66.6643 228.75 66.5807 228.11 66.6913C227.477 66.7993 226.895 67.1078 226.45 67.5713C226.13 67.9313 226.05 68.2113 226.13 68.2713Z" fill="#263238"/>
<path d="M238.86 67.8413C238.911 68.1345 239.075 68.3962 239.315 68.5715C239.556 68.7468 239.855 68.822 240.15 68.7813C240.296 68.7689 240.439 68.7272 240.569 68.6587C240.699 68.5902 240.814 68.4963 240.908 68.3826C241.001 68.2688 241.07 68.1375 241.112 67.9965C241.154 67.8554 241.166 67.7074 241.15 67.5613C241.101 67.2663 240.938 67.0021 240.697 66.8247C240.457 66.6474 240.156 66.5708 239.86 66.6113C239.713 66.625 239.57 66.6679 239.44 66.7374C239.31 66.8069 239.195 66.9017 239.102 67.0163C239.008 67.1308 238.939 67.2628 238.898 67.4044C238.856 67.5461 238.843 67.6946 238.86 67.8413Z" fill="#263238"/>
<path d="M238.88 66.4813C239.05 66.6013 239.79 65.8113 241.01 65.6013C242.23 65.3913 243.22 65.8413 243.33 65.6713C243.44 65.5013 243.19 65.3513 242.75 65.1413C242.162 64.8733 241.506 64.7896 240.87 64.9013C240.237 65.0093 239.655 65.3178 239.21 65.7813C238.88 66.1313 238.8 66.4213 238.88 66.4813Z" fill="#263238"/>
<path d="M236.06 76.2612C235.396 76.182 234.724 76.182 234.06 76.2612C233.75 76.2612 233.44 76.2612 233.35 76.0712C233.244 75.7462 233.244 75.3962 233.35 75.0712C233.51 74.2712 233.68 73.4312 233.85 72.5512C234.361 70.3988 234.696 68.2082 234.85 66.0012C234.186 68.1091 233.688 70.2657 233.36 72.4512C233.2 73.3412 233.04 74.1812 232.9 74.9812C232.751 75.3847 232.751 75.8278 232.9 76.2312C232.962 76.3341 233.048 76.4206 233.151 76.4832C233.254 76.5459 233.37 76.5829 233.49 76.5912C233.669 76.6172 233.851 76.6172 234.03 76.5912C234.718 76.569 235.4 76.4581 236.06 76.2612Z" fill="#263238"/>
<path d="M237.75 90.8413C241.907 90.175 245.798 88.368 248.99 85.6213C248.99 85.6213 247.2 92.1713 238.24 92.9013L237.75 90.8413Z" fill="#EB996E"/>
<path d="M237.09 79.1013C237.273 78.7721 237.536 78.4937 237.853 78.2912C238.171 78.0886 238.534 77.9684 238.91 77.9413C239.182 77.921 239.456 77.9547 239.715 78.0405C239.974 78.1263 240.214 78.2625 240.42 78.4413C240.62 78.6138 240.761 78.8441 240.823 79.1004C240.886 79.3567 240.867 79.6261 240.77 79.8713C240.614 80.1249 240.387 80.3262 240.116 80.4491C239.845 80.5721 239.543 80.6112 239.25 80.5613C238.639 80.4554 238.055 80.2312 237.53 79.9013C237.376 79.8279 237.237 79.7262 237.12 79.6013C237.066 79.541 237.031 79.4664 237.019 79.3866C237.006 79.3068 237.017 79.2251 237.05 79.1513" fill="#EB996E"/>
<path d="M239.78 76.4813C239.59 76.4813 239.78 77.8213 238.85 78.9513C237.92 80.0813 236.46 80.1913 236.48 80.3813C236.5 80.5713 236.84 80.5813 237.43 80.4913C238.206 80.3682 238.914 79.9752 239.43 79.3813C239.915 78.8038 240.165 78.0648 240.13 77.3113C240.08 76.7513 239.87 76.4513 239.78 76.4813Z" fill="#263238"/>
<path d="M246.34 49.7012C243.99 54.8912 236.34 61.2112 230.48 63.4512C231.01 62.3812 234.32 59.3712 234.86 58.2912C232.48 60.8812 229.05 64.3812 225.42 65.2912C224.995 65.4157 224.544 65.4157 224.12 65.2912C223.883 65.165 223.678 64.9855 223.522 64.7669C223.366 64.5483 223.262 64.2965 223.22 64.0312C222.516 61.4175 222.097 58.7352 221.97 56.0312C221.849 53.7458 222.604 51.5002 224.08 49.7513C226.08 47.5013 229.36 46.4213 232.51 45.7513C235.123 45.0878 237.841 44.9451 240.51 45.3313C243.12 45.8413 245.51 47.3313 246.34 49.5513" fill="#6B8AFD"/>
<path d="M260.4 69.2513C260.443 67.2487 260.369 65.2453 260.18 63.2513C259.58 58.6713 257.35 40.7913 238.33 45.1213L244.41 50.5613C244.41 50.5613 243.23 61.2913 251.12 67.0413C251.12 67.0413 251.12 77.7513 256.56 81.6113C256.56 81.6113 260.37 74.3513 260.4 69.2913" fill="#6B8AFD"/>
<path d="M250.77 66.2812C251.679 65.912 252.672 65.8013 253.64 65.9612C254.612 66.1301 255.478 66.6764 256.05 67.4812C256.569 68.3198 256.754 69.3225 256.57 70.2912C256.38 71.2501 255.981 72.1551 255.4 72.9412C255.016 73.5298 254.498 74.0196 253.89 74.3712C253.583 74.5393 253.239 74.6274 252.89 74.6274C252.54 74.6274 252.196 74.5393 251.89 74.3712" fill="#FFBE9D"/>
<path d="M252.3 71.8913C252.2 71.9513 252.71 72.4513 253.53 72.0613C253.962 71.8209 254.284 71.4233 254.43 70.9513C254.596 70.4182 254.661 69.8584 254.62 69.3013C254.587 68.706 254.342 68.1421 253.93 67.7113C253.758 67.5276 253.545 67.386 253.309 67.2975C253.074 67.2091 252.821 67.1762 252.57 67.2013C251.68 67.3413 251.51 68.0013 251.57 68.0013C251.63 68.0013 251.95 67.6813 252.57 67.7213C252.946 67.7949 253.284 68.0006 253.523 68.3013C253.761 68.602 253.884 68.9779 253.87 69.3613C253.945 69.7611 253.927 70.1727 253.818 70.5645C253.708 70.9563 253.511 71.3178 253.24 71.6213C252.78 71.9813 252.4 71.8413 252.3 71.8913Z" fill="#EB996E"/>
<path d="M275.48 176.981H256.63L259.33 123.591L234.43 124.421C234.43 124.421 230.19 161.421 229.76 166.221C202.96 141.741 184.48 126.291 171.71 117.091C154.71 104.811 145.53 114.301 141.98 118.731C132.6 130.431 116.49 205.051 116.49 205.051L145.7 209.691L160.98 145.171C160.98 145.171 194.28 185.861 221.2 209.461C230.73 217.821 248.57 216.701 255.36 214.021C255.4 214.021 276.14 202.751 275.48 176.981Z" fill="#263238"/>
<path d="M247.19 182.841C246.96 183.99 246.849 185.16 246.86 186.331C246.892 187.734 247.218 189.115 247.819 190.383C248.419 191.652 249.28 192.78 250.344 193.693C251.409 194.607 252.655 195.287 253.999 195.688C255.344 196.089 256.758 196.203 258.15 196.021C259.305 195.851 260.441 195.566 261.54 195.171C261.292 195.377 261.012 195.539 260.71 195.651C259.912 196.022 259.062 196.268 258.19 196.381C256.747 196.601 255.273 196.507 253.869 196.106C252.466 195.705 251.165 195.007 250.055 194.058C248.946 193.109 248.054 191.932 247.441 190.607C246.827 189.283 246.506 187.841 246.5 186.381C246.483 185.499 246.598 184.62 246.84 183.771C246.909 183.445 247.027 183.132 247.19 182.841Z" fill="#455A64"/>
<path d="M146.81 203.991C146.81 204.141 140.28 203.251 132.28 201.991C124.28 200.731 117.8 199.641 117.82 199.491C117.84 199.341 124.35 200.241 132.36 201.491C140.37 202.741 146.83 203.841 146.81 203.991Z" fill="#455A64"/>
<path d="M133.49 200.321C133.549 201.166 133.433 202.013 133.15 202.811C133.04 203.652 132.754 204.459 132.31 205.181C132.366 203.498 132.768 201.843 133.49 200.321Z" fill="#455A64"/>
<path d="M135.94 190.621C135.985 191.468 135.86 192.315 135.57 193.111C135.442 193.95 135.143 194.754 134.69 195.471C134.775 193.787 135.2 192.137 135.94 190.621Z" fill="#455A64"/>
<path d="M138.56 180.971C138.591 181.817 138.452 182.661 138.15 183.451C138.006 184.286 137.693 185.082 137.23 185.791C137.2 184.946 137.339 184.102 137.64 183.311C137.784 182.477 138.097 181.68 138.56 180.971Z" fill="#455A64"/>
<path d="M141.4 171.381C141.262 173.059 140.778 174.69 139.98 176.171C139.963 175.325 140.12 174.485 140.44 173.701C140.593 172.869 140.92 172.078 141.4 171.381Z" fill="#455A64"/>
<path d="M144.31 161.841C144.313 162.69 144.143 163.53 143.81 164.311C143.632 165.136 143.292 165.918 142.81 166.611C142.801 165.765 142.972 164.927 143.31 164.151C143.48 163.32 143.82 162.534 144.31 161.841Z" fill="#455A64"/>
<path d="M147.4 152.331C147.395 153.177 147.21 154.012 146.86 154.781C146.684 155.604 146.343 156.383 145.86 157.071C146.057 155.4 146.595 153.787 147.44 152.331H147.4Z" fill="#455A64"/>
<path d="M150.7 142.841C150.674 143.686 150.477 144.516 150.12 145.281C149.927 146.105 149.562 146.879 149.05 147.551C149.268 145.884 149.83 144.28 150.7 142.841Z" fill="#455A64"/>
<path d="M154.09 133.471C154.05 134.317 153.843 135.146 153.48 135.911C153.27 136.731 152.896 137.5 152.38 138.171C152.414 137.325 152.621 136.494 152.99 135.731C153.195 134.909 153.569 134.139 154.09 133.471Z" fill="#455A64"/>
<path d="M159.26 132.951C159.15 133.051 158.32 132.291 157.39 131.271C156.46 130.251 155.8 129.341 155.91 129.271C156.02 129.201 156.85 129.931 157.78 130.951C158.71 131.971 159.4 132.841 159.26 132.951Z" fill="#455A64"/>
<path d="M166.01 140.331C165.91 140.431 165.06 139.681 164.13 138.661C163.2 137.641 162.52 136.741 162.63 136.661C162.74 136.581 163.58 137.311 164.51 138.331C165.44 139.351 166.12 140.231 166.01 140.331Z" fill="#455A64"/>
<path d="M172.81 147.661C172.7 147.761 171.81 147.021 170.92 146.011C170.03 145.001 169.3 144.101 169.4 144.011C169.5 143.921 170.4 144.651 171.3 145.661C171.928 146.224 172.441 146.903 172.81 147.661Z" fill="#455A64"/>
<path d="M179.64 154.961C179.54 155.061 178.64 154.331 177.74 153.321C176.84 152.311 176.11 151.421 176.22 151.321C176.33 151.221 177.22 151.961 178.12 152.961C178.751 153.523 179.267 154.203 179.64 154.961Z" fill="#455A64"/>
<path d="M186.5 162.241C186.39 162.341 185.5 161.611 184.59 160.601C183.68 159.591 182.96 158.701 183.07 158.601C183.18 158.501 184.02 159.231 184.97 160.241C185.92 161.251 186.6 162.141 186.5 162.241Z" fill="#455A64"/>
<path d="M193.4 169.501C193.3 169.601 192.4 168.871 191.5 167.871C190.6 166.871 189.86 165.971 189.96 165.871C190.06 165.771 190.96 166.511 191.87 167.511C192.78 168.511 193.48 169.401 193.4 169.501Z" fill="#455A64"/>
<path d="M200.26 176.761C200.15 176.861 199.26 176.131 198.35 175.121C197.44 174.111 196.71 173.231 196.81 173.121C196.91 173.011 197.81 173.751 198.72 174.761C199.63 175.771 200.4 176.661 200.26 176.761Z" fill="#455A64"/>
<path d="M207.14 184.021C207.03 184.111 206.14 183.381 205.23 182.381C204.32 181.381 203.59 180.481 203.7 180.381C203.81 180.281 204.7 181.011 205.61 182.011C206.52 183.011 207.24 183.921 207.14 184.021Z" fill="#455A64"/>
<path d="M214 191.281C213.9 191.381 213 190.651 212.1 189.641C211.2 188.631 210.47 187.751 210.57 187.641C210.67 187.531 211.57 188.271 212.48 189.281C213.39 190.291 214.11 191.191 214 191.281Z" fill="#455A64"/>
<path d="M221.16 198.251C220.354 197.967 219.629 197.49 219.05 196.861C218.05 195.931 217.33 195.021 217.43 194.921C217.53 194.821 218.43 195.561 219.43 196.471C220.43 197.381 221.24 198.131 221.16 198.251Z" fill="#455A64"/>
<path d="M230.2 202.301C228.482 202.365 226.792 201.851 225.4 200.841C226.23 200.936 227.042 201.152 227.81 201.481C228.641 201.641 229.446 201.917 230.2 202.301Z" fill="#455A64"/>
<path d="M240.03 201.381C239.368 201.929 238.563 202.276 237.71 202.381C237.127 202.525 236.53 202.599 235.93 202.601C235.47 202.601 235.18 202.601 235.18 202.491C235.18 202.381 236.28 202.181 237.59 201.881C238.381 201.619 239.2 201.451 240.03 201.381Z" fill="#455A64"/>
<path d="M248.14 195.631C248.24 195.731 247.54 196.631 246.48 197.531C245.42 198.431 244.43 199.011 244.35 198.891C244.27 198.771 245.11 198.041 246.14 197.141C247.17 196.241 248.04 195.531 248.14 195.631Z" fill="#455A64"/>
<path d="M199.4 116.101L174.22 102.291L173.32 104.241L198.38 118.281L199.4 116.101Z" fill="#263238"/>
<path d="M193.34 115.461C193.34 115.461 187.5 107.861 186.65 106.201C185.8 104.541 184.36 101.651 183.91 101.631C183.46 101.611 181.91 102.001 184.43 106.951C186.95 111.901 182.11 109.161 182.11 109.161L177.28 106.461C177.28 106.461 174.78 117.181 177.06 120.171C179.219 122.744 181.613 125.111 184.21 127.241L193.34 115.461Z" fill="#FFBE9D"/>
<path d="M182.64 125.241C182.64 125.241 212.95 164.411 223.81 167.011C234.67 169.611 263.22 139.331 263.22 139.331L250.84 123.891C250.84 123.891 227.6 145.261 226.05 144.441C224.5 143.621 193.34 115.441 193.34 115.441L182.64 125.241Z" fill="#FFBE9D"/>
<path d="M260.15 111.471L235.99 136.151L251.4 156.391C251.4 156.391 275.9 137.171 276.11 129.311C276.29 122.631 274.29 109.951 266.49 109.051C265.319 108.95 264.14 109.114 263.042 109.534C261.944 109.953 260.955 110.615 260.15 111.471Z" fill="#455A64"/>
<path d="M152.4 179.451C152.385 179.653 152.355 179.854 152.31 180.051C152.23 180.471 152.12 181.051 151.98 181.741C151.66 183.261 151.22 185.401 150.67 188.051L145.99 209.741L145.94 209.971H145.7L134.4 208.161L116.45 205.281H116.2L116.26 205.041C117.95 198.111 119.39 192.251 120.41 188.041C120.92 186.041 121.33 184.401 121.63 183.231C121.77 182.711 121.88 182.291 121.97 181.971C122 181.823 122.047 181.679 122.11 181.541C122.102 181.69 122.079 181.838 122.04 181.981L121.77 183.271C121.51 184.431 121.14 186.061 120.69 188.101L116.69 205.101L116.5 204.821L134.5 207.641L145.76 209.441L145.48 209.631C147.43 200.931 149.12 193.401 150.34 187.981L151.79 181.701C151.97 181.011 152.1 180.451 152.21 180.031C152.248 179.831 152.312 179.636 152.4 179.451Z" fill="#455A64"/>
<path d="M227.4 212.981C227.257 212.999 227.113 212.999 226.97 212.981C226.559 212.923 226.157 212.819 225.77 212.671C224.359 212.093 223.078 211.24 222 210.161L211.25 199.841C207.06 195.841 203.25 192.161 200.59 189.491L197.4 186.351C196.995 185.974 196.621 185.566 196.28 185.131C196.729 185.453 197.15 185.81 197.54 186.201L200.85 189.271C203.62 191.871 207.43 195.491 211.61 199.511C215.79 203.531 219.61 207.181 222.26 209.871C223.282 210.949 224.496 211.827 225.84 212.461C226.81 212.891 227.4 212.921 227.4 212.981Z" fill="#455A64"/>
<path d="M241.53 181.021C238.986 178.838 236.552 176.528 234.24 174.101C231.813 171.789 229.503 169.356 227.32 166.811C229.872 168.985 232.306 171.295 234.61 173.731C237.043 176.038 239.353 178.471 241.53 181.021Z" fill="#455A64"/>
<path d="M235.99 100.841L234.4 124.421L238.23 124.851L239.48 100.051C238.273 100.058 237.082 100.328 235.99 100.841Z" fill="#263238"/>
<path d="M235.79 108.241C233.007 108.588 230.192 108.588 227.41 108.241C230.192 107.895 233.007 107.895 235.79 108.241Z" fill="#FAFAFA"/>
<path d="M279.07 116.041C279.07 116.181 265.76 116.301 249.34 116.301C232.92 116.301 219.62 116.181 219.62 116.041C219.62 115.901 232.92 115.781 249.34 115.781C265.76 115.781 279.07 115.901 279.07 116.041Z" fill="#FAFAFA"/>
<path d="M233.46 126.181C233.46 126.321 228.35 126.441 222.05 126.441C215.75 126.441 210.65 126.321 210.65 126.181C210.65 126.041 215.75 125.921 222.05 125.921C228.35 125.921 233.46 126.031 233.46 126.181Z" fill="#FAFAFA"/>
<path d="M279.07 125.401C279.07 125.541 272.07 125.661 263.47 125.661C254.87 125.661 247.88 125.541 247.88 125.401C247.88 125.261 254.88 125.141 263.47 125.141C272.06 125.141 279.07 125.251 279.07 125.401Z" fill="#FAFAFA"/>
<path d="M279.07 134.951C279.07 135.091 270.07 135.211 258.89 135.211C247.71 135.211 238.72 135.091 238.72 134.951C238.72 134.811 247.72 134.691 258.89 134.691C270.06 134.691 279.07 134.841 279.07 134.951Z" fill="#FAFAFA"/>
<path d="M279.31 146.841C279.31 146.991 271.49 147.101 261.84 147.101C252.19 147.101 244.4 146.981 244.4 146.841C244.4 146.701 252.22 146.581 261.87 146.581C271.52 146.581 279.31 146.691 279.31 146.841Z" fill="#FAFAFA"/>
<path d="M278.68 155.611C278.68 155.751 273.92 155.871 268.05 155.871C262.18 155.871 257.43 155.751 257.43 155.611C257.43 155.471 262.19 155.351 268.05 155.351C273.91 155.351 278.68 155.471 278.68 155.611Z" fill="#FAFAFA"/>
<path d="M278.68 164.361C278.68 164.501 273.92 164.621 268.05 164.621C262.18 164.621 257.43 164.501 257.43 164.361C257.43 164.221 262.19 164.101 268.05 164.101C273.91 164.101 278.68 164.221 278.68 164.361Z" fill="#FAFAFA"/>
<path d="M274.87 132.971C274.781 133.163 274.67 133.344 274.54 133.511L273.54 135.041C272.154 136.892 270.676 138.671 269.11 140.371C263.676 146.191 257.827 151.608 251.61 156.581L251.41 156.751L251.26 156.531L243.4 145.911L236.11 135.841L235.98 135.661L236.13 135.511L253.4 118.321L258.4 113.321L259.76 112.011C259.914 111.851 260.081 111.704 260.26 111.571C260.129 111.749 259.985 111.916 259.83 112.071L258.52 113.441C257.34 114.661 255.67 116.381 253.58 118.511L236.49 135.861V135.531L243.84 145.531L251.6 156.171H251.24C257.449 151.235 263.322 145.89 268.82 140.171C270.82 138.031 272.33 136.171 273.34 134.951C273.8 134.331 274.17 133.841 274.45 133.481C274.572 133.298 274.713 133.127 274.87 132.971Z" fill="#263238"/>
<path d="M244.09 53.2412C242.65 56.8812 244.09 63.9312 247.36 67.1312C250.14 69.8712 251.27 74.0712 251.65 77.9712C252.1 82.5712 249.94 87.2812 251.12 91.7612C251.92 94.7612 254.12 97.1912 255.28 100.071C256.221 102.53 256.397 105.216 255.785 107.777C255.173 110.338 253.801 112.654 251.85 114.421C252.887 115.26 254.117 115.826 255.429 116.068C256.74 116.31 258.092 116.22 259.36 115.806C260.628 115.393 261.772 114.669 262.689 113.701C263.606 112.732 264.266 111.55 264.61 110.261L264.87 115.741C268.766 113.408 271.594 109.643 272.749 105.251C273.904 100.859 273.294 96.1892 271.05 92.2412C269.24 89.0712 266.35 86.2412 266.17 82.5812C266.05 80.1912 267.17 77.8712 267.17 75.4812C267.12 71.6512 264.29 68.4812 262.66 65.0612C261.22 61.9812 260.72 58.5512 259.5 55.3812C258.28 52.2112 256.01 49.1012 252.7 48.3812" fill="#6B8AFD"/>
<path d="M57.4 289.901C60.5881 288.17 64.2464 287.504 67.84 288.001C69.7934 288.053 71.6732 288.757 73.18 290.001C74.56 291.351 74.95 293.861 73.53 295.181C72.6048 295.877 71.4667 296.231 70.31 296.181C67.52 296.311 64.41 296.011 62.31 297.811C61.1 298.811 60.31 300.471 58.86 301.031C58.1114 301.253 57.3111 301.224 56.5803 300.95C55.8495 300.675 55.228 300.17 54.81 299.511C54.0124 298.159 53.7586 296.554 54.1 295.021C54.2237 293.973 54.5854 292.967 55.1573 292.079C55.7292 291.192 56.4963 290.447 57.4 289.901Z" fill="#6B8AFD"/>
<path opacity="0.2" d="M57.4 289.901C60.5881 288.17 64.2464 287.504 67.84 288.001C69.7934 288.053 71.6732 288.757 73.18 290.001C74.56 291.351 74.95 293.861 73.53 295.181C72.6048 295.877 71.4667 296.231 70.31 296.181C67.52 296.311 64.41 296.011 62.31 297.811C61.1 298.811 60.31 300.471 58.86 301.031C58.1114 301.253 57.3111 301.224 56.5803 300.95C55.8495 300.675 55.228 300.17 54.81 299.511C54.0124 298.159 53.7586 296.554 54.1 295.021C54.2237 293.973 54.5854 292.967 55.1573 292.079C55.7292 291.192 56.4963 290.447 57.4 289.901Z" fill="white"/>
<path d="M49.26 276.181C51.38 278.861 55.13 277.711 56.79 275.901C58.45 274.091 59.05 271.581 59.59 269.181C60.83 263.701 62.06 257.961 60.59 252.551C60.2145 250.905 59.3948 249.394 58.22 248.181C57.6251 247.586 56.8843 247.157 56.0719 246.938C55.2594 246.719 54.4037 246.716 53.59 246.931C51.7 247.551 50.59 249.501 49.86 251.341C47.6355 256.762 46.6449 262.61 46.96 268.461C47.11 271.191 47.6 274.021 49.27 276.181" fill="#6B8AFD"/>
<path opacity="0.3" d="M49.26 276.181C51.38 278.861 55.13 277.711 56.79 275.901C58.45 274.091 59.05 271.581 59.59 269.181C60.83 263.701 62.06 257.961 60.59 252.551C60.2145 250.905 59.3948 249.394 58.22 248.181C57.6251 247.586 56.8843 247.157 56.0719 246.938C55.2594 246.719 54.4037 246.716 53.59 246.931C51.7 247.551 50.59 249.501 49.86 251.341C47.6355 256.762 46.6449 262.61 46.96 268.461C47.11 271.191 47.6 274.021 49.27 276.181" fill="black"/>
<path d="M44.1199 280.501C45.0426 279.128 45.6159 277.55 45.7902 275.905C45.9645 274.26 45.7344 272.597 45.1199 271.061C43.8682 267.985 41.7921 265.314 39.1199 263.341C36.0746 260.935 32.5897 259.145 28.8599 258.071C27.4102 257.582 25.871 257.414 24.3499 257.581C23.5913 257.668 22.8655 257.939 22.2362 258.372C21.6068 258.804 21.093 259.384 20.7399 260.061C19.8099 262.061 20.9499 264.471 22.1499 266.381C24.2634 269.742 26.6374 272.932 29.2499 275.921C31.3499 278.321 33.7399 280.681 36.7799 281.641C39.8199 282.601 42.9099 282.291 44.3699 280.131" fill="#6B8AFD"/>
<path d="M51.5998 318.331C51.6822 317.91 51.7191 317.481 51.7098 317.051C51.7098 316.121 51.7898 314.961 51.8398 313.571C51.8898 312.181 52.0298 310.351 52.3198 308.441C52.6544 306.368 53.1561 304.324 53.8198 302.331C54.4601 300.343 55.3829 298.457 56.5598 296.731C57.5127 295.32 58.7703 294.141 60.2398 293.281C61.2373 292.714 62.3168 292.306 63.4398 292.071C63.8664 292.026 64.2881 291.942 64.6998 291.821C64.2713 291.771 63.8383 291.771 63.4098 291.821C62.2359 291.977 61.1004 292.346 60.0598 292.911C58.5108 293.754 57.1791 294.945 56.1698 296.391C54.9407 298.149 53.9802 300.08 53.3198 302.121C52.6464 304.141 52.1511 306.215 51.8398 308.321C51.613 310.042 51.4895 311.776 51.4698 313.511C51.4698 314.981 51.4698 316.181 51.4698 317.001C51.4675 317.448 51.5111 317.894 51.5998 318.331Z" fill="#263238"/>
<path d="M51.6899 315.651C51.7032 315.455 51.7032 315.258 51.6899 315.061C51.6899 314.621 51.6199 314.061 51.5799 313.381C51.4899 311.921 51.37 309.801 51.29 307.181C51.12 301.951 51.29 296.301 51.64 288.321C52.02 280.821 52.64 272.081 53.45 266.321C53.63 265.021 53.81 263.851 53.99 262.831C54.17 261.811 54.2999 260.921 54.4399 260.201C54.5799 259.481 54.66 258.971 54.74 258.541C54.7862 258.348 54.8097 258.15 54.81 257.951C54.7276 258.133 54.6704 258.324 54.64 258.521C54.53 258.951 54.4 259.521 54.24 260.161C54.08 260.801 53.89 261.751 53.7 262.781C53.51 263.811 53.28 264.971 53.09 266.261C52.0324 273.019 51.3414 279.829 51.02 286.661C50.62 294.661 50.65 301.911 50.92 307.151C51.04 309.771 51.23 311.891 51.38 313.341C51.46 314.031 51.5299 314.581 51.5799 315.021C51.5853 315.236 51.6224 315.448 51.6899 315.651Z" fill="#263238"/>
<path d="M50.8999 301.701C50.9084 301.113 50.8716 300.524 50.7899 299.941C50.6499 298.811 50.3999 297.191 49.9699 295.201C49.4292 292.883 48.7615 290.596 47.9699 288.351C47.0492 285.585 45.9158 282.893 44.5799 280.301C42.2774 275.512 39.1227 271.181 35.2699 267.521C34.6019 266.893 33.8938 266.308 33.1499 265.771C32.8299 265.531 32.5399 265.291 32.2499 265.101L31.4399 264.611C30.9514 264.285 30.4401 263.994 29.9099 263.741C31.6934 264.987 33.3998 266.34 35.0199 267.791C38.7508 271.495 41.8246 275.807 44.1099 280.541C45.4226 283.128 46.5585 285.801 47.5099 288.541C48.4199 291.051 49.0699 293.361 49.5699 295.321C50.0699 297.281 50.3499 298.891 50.5699 300.001C50.6403 300.575 50.7506 301.143 50.8999 301.701Z" fill="#263238"/>
<path d="M192.4 0.421342C192.104 0.45344 191.812 0.517139 191.53 0.611344C191.129 0.760921 190.773 1.00872 190.494 1.33199C190.214 1.65525 190.02 2.04359 189.93 2.46134C189.861 3.08887 189.844 3.72104 189.88 4.35133C189.88 5.06133 189.88 5.83135 189.88 6.66135C189.88 8.33468 189.88 10.2447 189.88 12.3913C189.88 16.6913 189.88 21.9213 189.93 27.9513C189.93 29.4613 189.93 31.0213 189.93 32.6313V33.8413C189.904 34.2347 189.942 34.6296 190.04 35.0113C190.155 35.383 190.357 35.7216 190.63 35.9984C190.904 36.2752 191.24 36.482 191.61 36.6013C192.004 36.7083 192.413 36.7489 192.82 36.7213H202.48V36.9313C202.48 40.4513 202.48 44.1913 202.48 48.0613L202.09 47.9013L213.21 36.7613L213.28 36.6913H213.38H256.54H262.69C263.19 36.6913 263.69 36.6913 264.19 36.6913C264.893 36.6277 265.557 36.3366 266.08 35.862C266.604 35.3874 266.958 34.7553 267.09 34.0613C267.151 33.5806 267.171 33.0955 267.15 32.6113V28.1313C267.15 26.1313 267.15 24.1913 267.15 22.2513V10.7513C267.15 8.88134 267.15 7.03134 267.15 5.21134V3.84134C267.141 3.42085 267.049 3.00623 266.88 2.62134C266.629 2.03215 266.211 1.52905 265.678 1.17378C265.145 0.818514 264.52 0.626516 263.88 0.621339H245.06H227.38L201.79 0.541337L194.79 0.491334L201.79 0.441346L227.4 0.241334H245.08H264.03C264.506 0.24101 264.978 0.332692 265.42 0.511338C266.321 0.892291 267.039 1.60978 267.42 2.51134C267.612 2.95721 267.718 3.43585 267.73 3.92134V10.8413C267.73 14.5813 267.73 18.398 267.73 22.2913V32.6513C267.751 33.1657 267.727 33.681 267.66 34.1913C267.558 34.7251 267.343 35.2309 267.029 35.6743C266.715 36.1177 266.31 36.4885 265.84 36.7613C265.369 37.0342 264.843 37.1982 264.3 37.2413C263.74 37.2413 263.3 37.2413 262.75 37.2413H256.6H213.44L213.62 37.1713L202.47 48.2913L202.08 48.6813V48.1313C202.08 44.2613 202.08 40.5213 202.08 37.0013L202.29 37.2113H192.84C192.396 37.2418 191.95 37.1978 191.52 37.0813C191.089 36.9418 190.698 36.6996 190.381 36.3756C190.064 36.0516 189.83 35.6555 189.7 35.2213C189.597 34.8063 189.557 34.3783 189.58 33.9513V32.7413C189.58 31.1313 189.58 29.5713 189.58 28.0613C189.58 22.0613 189.58 16.8013 189.63 12.5013C189.63 10.348 189.63 8.438 189.63 6.77133C189.63 5.94133 189.63 5.17134 189.63 4.46134C189.609 3.82024 189.636 3.17849 189.71 2.54134C189.815 2.10979 190.026 1.71148 190.325 1.38298C190.624 1.05448 191 0.806346 191.42 0.661347C191.721 0.49891 192.058 0.416275 192.4 0.421342Z" fill="#263238"/>
<path d="M218.98 18.6013C218.982 19.1797 218.812 19.7456 218.492 20.2273C218.172 20.709 217.716 21.0848 217.182 21.3071C216.648 21.5293 216.06 21.588 215.493 21.4757C214.925 21.3633 214.404 21.085 213.995 20.676C213.586 20.2671 213.308 19.7459 213.196 19.1785C213.083 18.6111 213.142 18.0232 213.364 17.4892C213.586 16.9553 213.962 16.4993 214.444 16.1792C214.926 15.8591 215.492 15.6893 216.07 15.6913C216.842 15.6913 217.582 15.9979 218.128 16.5436C218.673 17.0893 218.98 17.8295 218.98 18.6013Z" fill="#455A64"/>
<path d="M230.49 18.6014C230.49 19.1769 230.319 19.7396 229.999 20.2181C229.68 20.6967 229.225 21.0696 228.694 21.2899C228.162 21.5101 227.577 21.5678 227.012 21.4555C226.448 21.3432 225.929 21.0661 225.522 20.6591C225.115 20.2521 224.838 19.7336 224.726 19.1691C224.614 18.6046 224.671 18.0195 224.891 17.4878C225.112 16.9561 225.485 16.5016 225.963 16.1818C226.442 15.8621 227.004 15.6914 227.58 15.6914C228.352 15.6914 229.092 15.998 229.638 16.5437C230.183 17.0894 230.49 17.8296 230.49 18.6014Z" fill="#455A64"/>
<path d="M242 18.6014C242 19.1769 241.829 19.7396 241.51 20.2181C241.19 20.6967 240.735 21.0696 240.204 21.2899C239.672 21.5101 239.087 21.5678 238.522 21.4555C237.958 21.3432 237.439 21.0661 237.032 20.6591C236.625 20.2521 236.348 19.7336 236.236 19.1691C236.124 18.6046 236.181 18.0195 236.401 17.4878C236.622 16.9561 236.995 16.5016 237.473 16.1818C237.952 15.8621 238.514 15.6914 239.09 15.6914C239.472 15.6914 239.851 15.7667 240.204 15.9129C240.557 16.0592 240.877 16.2735 241.148 16.5437C241.418 16.8139 241.632 17.1347 241.778 17.4878C241.925 17.8409 242 18.2192 242 18.6014Z" fill="#455A64"/>
<path d="M187.81 50.7514H98.0399C97.586 50.7514 97.1365 50.8409 96.7173 51.0149C96.2981 51.1889 95.9173 51.4439 95.5968 51.7654C95.2763 52.0868 95.0224 52.4683 94.8496 52.888C94.6768 53.3078 94.5885 53.7575 94.5899 54.2114V83.2114C94.5885 83.6648 94.6769 84.114 94.8498 84.5332C95.0227 84.9523 95.2768 85.3332 95.5974 85.6538C95.918 85.9745 96.2989 86.2285 96.718 86.4014C97.1372 86.5743 97.5864 86.6627 98.0399 86.6614H167.04L178.04 97.6614V86.6614H187.82C188.499 86.6614 189.15 86.3916 189.63 85.9115C190.11 85.4315 190.38 84.7803 190.38 84.1014V53.3114C190.38 52.9743 190.313 52.6406 190.184 52.3294C190.055 52.0181 189.865 51.7355 189.627 51.4976C189.388 51.2598 189.104 51.0714 188.793 50.9433C188.481 50.8153 188.147 50.75 187.81 50.7514Z" fill="#455A64"/>
<path d="M115.23 68.2414C115.232 68.9009 115.038 69.5461 114.673 70.0952C114.308 70.6443 113.788 71.0727 113.179 71.326C112.57 71.5793 111.9 71.6461 111.253 71.5179C110.606 71.3897 110.011 71.0724 109.545 70.606C109.079 70.1397 108.761 69.5455 108.633 68.8986C108.505 68.2517 108.572 67.5813 108.825 66.9724C109.078 66.3636 109.507 65.8436 110.056 65.4784C110.605 65.1133 111.25 64.9194 111.91 64.9214C112.79 64.9214 113.635 65.2712 114.257 65.8938C114.88 66.5164 115.23 67.3609 115.23 68.2414Z" fill="#FAFAFA"/>
<path d="M176.4 64.9214C176.4 65.0614 164.27 65.1814 149.31 65.1814C134.35 65.1814 122.21 65.0614 122.21 64.9214C122.21 64.7814 134.34 64.6614 149.31 64.6614C164.28 64.6614 176.4 64.7714 176.4 64.9214Z" fill="#FAFAFA"/>
<path d="M176.4 69.6714C176.4 69.8114 164.27 69.9314 149.31 69.9314C134.35 69.9314 122.21 69.8114 122.21 69.6714C122.21 69.5314 134.34 69.4114 149.31 69.4114C164.28 69.4114 176.4 69.5214 176.4 69.6714Z" fill="#FAFAFA"/>
<path d="M147.61 75.0614C147.61 75.2114 141.92 75.3214 134.9 75.3214C127.88 75.3214 122.18 75.2114 122.18 75.0614C122.18 74.9114 127.87 74.8014 134.9 74.8014C141.93 74.8014 147.61 74.9214 147.61 75.0614Z" fill="#FAFAFA"/>
<path d="M382.08 97.8413C381.79 97.8735 381.505 97.9372 381.23 98.0313C380.834 98.1769 380.482 98.4202 380.206 98.7383C379.93 99.0565 379.739 99.4394 379.65 99.8513C379.581 100.472 379.564 101.098 379.6 101.721C379.6 102.411 379.6 103.171 379.6 103.991C379.6 105.631 379.6 107.511 379.6 109.631C379.6 113.871 379.6 119.021 379.65 124.961C379.65 126.451 379.65 127.961 379.65 129.571V130.761C379.624 131.148 379.662 131.536 379.76 131.911C379.871 132.279 380.07 132.615 380.34 132.889C380.61 133.162 380.943 133.366 381.31 133.481C381.697 133.586 382.1 133.623 382.5 133.591H392.01V133.811C392.01 137.271 392.01 140.951 392.01 144.811L391.62 144.651L402.62 133.651L402.69 133.581H451.4C451.9 133.581 452.4 133.581 452.88 133.581C453.573 133.522 454.227 133.237 454.743 132.772C455.259 132.306 455.61 131.684 455.74 131.001C455.796 130.527 455.816 130.049 455.8 129.571V119.371C455.8 115.541 455.8 111.771 455.8 108.091V101.281C455.79 100.864 455.698 100.453 455.53 100.071C455.279 99.5049 454.87 99.0227 454.352 98.6823C453.834 98.3419 453.23 98.1575 452.61 98.1513H433.94H416.53L391.32 98.0613H384.47L391.32 98.0113L416.53 97.9313H433.94H443.64H452.64C453.353 97.9318 454.051 98.1402 454.648 98.5309C455.244 98.9216 455.714 99.4778 456 100.131C456.198 100.568 456.303 101.042 456.31 101.521V108.341C456.31 112.021 456.31 115.791 456.31 119.621V129.821C456.334 130.329 456.314 130.837 456.25 131.341C456.15 131.868 455.937 132.366 455.626 132.803C455.316 133.24 454.914 133.604 454.45 133.871C453.986 134.144 453.466 134.308 452.93 134.351C452.38 134.351 451.93 134.351 451.4 134.351H445.4H402.88L403.05 134.281C399.25 138.081 395.583 141.731 392.05 145.231L391.67 145.621V145.071C391.67 141.251 391.67 137.571 391.67 134.071L391.88 134.281H382.58C382.139 134.307 381.697 134.263 381.27 134.151C380.847 134.011 380.464 133.772 380.153 133.454C379.841 133.135 379.611 132.747 379.48 132.321C379.375 131.91 379.338 131.484 379.37 131.061V129.871C379.37 128.281 379.37 126.751 379.37 125.261C379.37 119.321 379.37 114.171 379.42 109.931C379.42 107.811 379.42 105.931 379.42 104.291C379.42 103.471 379.42 102.711 379.42 102.021C379.399 101.387 379.425 100.752 379.5 100.121C379.602 99.6941 379.811 99.2997 380.106 98.9745C380.402 98.6494 380.774 98.4041 381.19 98.2613C381.446 98.0471 381.752 97.9025 382.08 97.8413Z" fill="#263238"/>
<path d="M394.59 117.161C396.423 117.161 397.91 115.675 397.91 113.841C397.91 112.008 396.423 110.521 394.59 110.521C392.756 110.521 391.27 112.008 391.27 113.841C391.27 115.675 392.756 117.161 394.59 117.161Z" fill="#455A64"/>
<path d="M447.64 110.511C447.64 110.661 438.06 110.771 426.25 110.771C414.44 110.771 404.87 110.661 404.87 110.511C404.87 110.361 414.44 110.251 426.25 110.251C438.06 110.251 447.64 110.371 447.64 110.511Z" fill="#263238"/>
<path d="M447.64 115.261C447.64 115.411 438.06 115.521 426.25 115.521C414.44 115.521 404.87 115.411 404.87 115.261C404.87 115.111 414.44 115.001 426.25 115.001C438.06 115.001 447.64 115.121 447.64 115.261Z" fill="#263238"/>
<path d="M430.29 120.661C430.29 120.801 424.6 120.921 417.58 120.921C410.56 120.921 404.87 120.801 404.87 120.661C404.87 120.521 410.56 120.401 417.58 120.401C424.6 120.401 430.29 120.521 430.29 120.661Z" fill="#263238"/>
<path d="M361.56 42.7413H405.4C405.854 42.74 406.304 42.8282 406.723 43.001C407.143 43.1738 407.525 43.4277 407.846 43.7482C408.167 44.0687 408.422 44.4495 408.596 44.8687C408.77 45.2879 408.86 45.7374 408.86 46.1913V75.1913C408.86 76.1089 408.495 76.989 407.847 77.6379C407.198 78.2867 406.318 78.6513 405.4 78.6513H382.3L371.3 89.6513V78.6513H361.53C360.85 78.6513 360.198 78.3819 359.716 77.9021C359.235 77.4223 358.963 76.7712 358.96 76.0913V45.3013C358.96 44.9617 359.027 44.6255 359.159 44.3123C359.29 43.9991 359.482 43.715 359.724 43.4768C359.966 43.2386 360.253 43.0508 360.568 42.9246C360.883 42.7983 361.22 42.736 361.56 42.7413Z" fill="#6B8AFD"/>
<path d="M376.09 61.3214C376.09 61.8321 375.938 62.3313 375.654 62.7558C375.37 63.1802 374.967 63.5109 374.495 63.7059C374.023 63.9009 373.504 63.9514 373.003 63.851C372.502 63.7507 372.042 63.5039 371.682 63.1421C371.322 62.7803 371.077 62.3197 370.978 61.8185C370.88 61.3174 370.932 60.7983 371.129 60.3271C371.326 59.8558 371.658 59.4536 372.084 59.1713C372.509 58.889 373.009 58.7394 373.52 58.7414C373.858 58.7413 374.193 58.8082 374.506 58.9379C374.818 59.0677 375.102 59.2579 375.341 59.4976C375.579 59.7373 375.769 60.0218 375.897 60.3348C376.026 60.6478 376.091 60.983 376.09 61.3214Z" fill="#FAFAFA"/>
<path d="M386.29 61.3214C386.29 61.8316 386.139 62.3305 385.855 62.7547C385.572 63.179 385.169 63.5097 384.697 63.705C384.226 63.9002 383.707 63.9513 383.207 63.8518C382.706 63.7522 382.246 63.5065 381.886 63.1457C381.525 62.7849 381.279 62.3252 381.179 61.8247C381.08 61.3242 381.131 60.8055 381.326 60.334C381.522 59.8626 381.852 59.4597 382.277 59.1762C382.701 58.8927 383.2 58.7414 383.71 58.7414C384.049 58.74 384.385 58.8059 384.699 58.9351C385.012 59.0643 385.297 59.2542 385.537 59.4941C385.777 59.7339 385.967 60.0189 386.096 60.3325C386.225 60.6461 386.291 60.9822 386.29 61.3214Z" fill="#FAFAFA"/>
<path d="M396.49 61.3213C396.49 61.8316 396.339 62.3304 396.055 62.7547C395.772 63.179 395.369 63.5097 394.897 63.7049C394.426 63.9002 393.907 63.9513 393.406 63.8518C392.906 63.7522 392.446 63.5065 392.085 63.1457C391.725 62.7849 391.479 62.3251 391.379 61.8247C391.28 61.3242 391.331 60.8054 391.526 60.334C391.722 59.8626 392.052 59.4596 392.476 59.1761C392.901 58.8927 393.4 58.7413 393.91 58.7413C394.594 58.7413 395.25 59.0132 395.734 59.497C396.218 59.9809 396.49 60.6371 396.49 61.3213Z" fill="#FAFAFA"/>
</svg>
